<?xml version="1.0" encoding="UTF-8"?>
<svg xmlns="http://www.w3.org/2000/svg" xmlns:xlink="http://www.w3.org/1999/xlink"
     width="960" height="720" viewBox="0 0 960 720">
<defs>
<linearGradient x1="320.0" y1="230" x2="640.0" y2="230" gradientUnits="userSpaceOnUse" id="d0">
<stop offset="0" stop-color="#6ae6ff" stop-opacity="1" />
<stop offset="1" stop-color="#ffd077" stop-opacity="1" />
</linearGradient>
<linearGradient x1="310.0" y1="100" x2="650.0" y2="410" gradientUnits="userSpaceOnUse" id="d1">
<stop offset="0" stop-color="#8cf1ff" stop-opacity="1" />
<stop offset="0.55" stop-color="#73c3ff" stop-opacity="1" />
<stop offset="1" stop-color="#ffb54d" stop-opacity="1" />
</linearGradient>
</defs>
<g opacity="1.0">
<circle cx="480.0" cy="262" r="150.0" fill="#52c9ff" fill-opacity="0.2" />
<circle cx="480.0" cy="262" r="96.0" fill="#ffb347" fill-opacity="0.12" />
<rect x="334.0" y="246" width="292.0" height="8" rx="4" ry="4" fill="url(#d0)" fill-opacity="0.95" />
<path d="M302.0,132.0 L396.0,66.0 L564.0,66.0 L658.0,132.0 L630.0,370.0 L330.0,370.0 Z" fill="#07111d" fill-opacity="0.44" stroke="url(#d1)" stroke-width="6" stroke-opacity="0.92" />
<path d="M 348.0 248 Q 480.0 162.0 612.0 248" stroke="url(#d0)" stroke-width="10" stroke-opacity="0.95" fill="none" />
<path d="M 372.0 238 Q 480.0 167.0 588.0 238" stroke="url(#d0)" stroke-width="8" stroke-opacity="0.95" fill="none" />
<path d="M 396.0 228 Q 480.0 172.0 564.0 228" stroke="url(#d0)" stroke-width="6" stroke-opacity="0.95" fill="none" />
<path d="M368.0,158.0 L422.0,158.0 L408.0,284.0 L354.0,284.0 Z" fill="url(#d1)" stroke="#f6fbff" stroke-width="1.5" stroke-opacity="0.3" fill-opacity="0.97" />
<path d="M538.0,158.0 L592.0,158.0 L606.0,284.0 L552.0,284.0 Z" fill="url(#d1)" stroke="#f6fbff" stroke-width="1.5" stroke-opacity="0.3" fill-opacity="0.97" />
<path d="M406.0,232.0 L554.0,232.0 L542.0,276.0 L418.0,276.0 Z" fill="url(#d1)" stroke="#f6fbff" stroke-width="1.5" stroke-opacity="0.3" fill-opacity="0.97" />
<path d="M406.0,284.0 L460.0,284.0 L428.0,390.0 L384.0,390.0 Z" fill="url(#d1)" stroke="#f6fbff" stroke-width="1.5" stroke-opacity="0.3" fill-opacity="0.97" />
<path d="M500.0,284.0 L554.0,284.0 L576.0,390.0 L532.0,390.0 Z" fill="url(#d1)" stroke="#f6fbff" stroke-width="1.5" stroke-opacity="0.3" fill-opacity="0.97" />
</g>
<text x="480.0" y="480.0" font-size="78" font-family="Ubuntu Condensed" font-weight="700" fill="#f7fbff" fill-opacity="0.96" stroke="#86dfff" stroke-width="0.4" stroke-opacity="0.25" letter-spacing="7" text-anchor="middle" dominant-baseline="central">HORIZON</text>
<text x="480.0" y="526.0" font-size="18" font-family="DejaVu Sans Mono" fill="#8fe9ff" fill-opacity="0.82" letter-spacing="4.5" text-anchor="middle" dominant-baseline="central">TYPESCRIPT GAME ENGINE</text>
<path d="M315.0,542.0 L645.0,542.0" stroke="#8fe9ff" stroke-opacity="0.2" stroke-width="1.5" />
</svg>